<?xml version="1.0" standalone="no"?><!DOCTYPE svg PUBLIC "-//W3C//DTD SVG 1.1//EN" "http://www.w3.org/Graphics/SVG/1.1/DTD/svg11.dtd"><svg t="1691201821207" class="icon" viewBox="0 0 1024 1024" version="1.1" xmlns="http://www.w3.org/2000/svg" p-id="1581" xmlns:xlink="http://www.w3.org/1999/xlink" width="200" height="200"><path d="M918.656 883.008H104.32c-21.76 0-39.296-15.616-39.296-35.008V276.992c0-19.392 17.536-35.008 39.296-35.008h814.336c21.76 0 39.36 15.616 39.36 35.008v571.008c0 19.264-17.664 35.008-39.36 35.008z" fill="#FFE9B4" p-id="1582"></path><path d="M512 411.008H65.024V210.368c0-21.76 17.6-39.36 39.36-39.36h305.92c17.408 0 32.64 11.328 37.696 28.032l64 211.968z" fill="#FFB02C" p-id="1583"></path><path d="M918.656 883.008H104.32a39.296 39.296 0 0 1-39.296-39.36V335.36c0-21.76 17.536-39.36 39.296-39.36h814.336c21.76 0 39.36 17.6 39.36 39.36v508.288a39.424 39.424 0 0 1-39.36 39.36z" fill="#FFCA28" p-id="1584"></path></svg>