<?xml version="1.0" standalone="no"?><!DOCTYPE svg PUBLIC "-//W3C//DTD SVG 1.1//EN" "http://www.w3.org/Graphics/SVG/1.1/DTD/svg11.dtd"><svg t="1682179191834" class="icon" viewBox="0 0 1152 1024" version="1.1" xmlns="http://www.w3.org/2000/svg" p-id="6083" xmlns:xlink="http://www.w3.org/1999/xlink" width="144" height="128"><path d="M685.6 705.4c11.4-19.2 18.4-41.4 18.4-65.4 0-70.6-57.4-128-128-128-34.4 0-65.6 13.8-88.6 35.8-32.6-59.2-95-99.8-167.4-99.8-106 0-192 86-192 192 0 4 1 7.6 1.2 11.4C54.2 677.6 0 748.2 0 832c0 106 86 192 192 192h480c88.4 0 160-71.6 160-160 0-83.8-64.6-151.6-146.4-158.6z m445-108.6c-186.2 35.4-357-107.4-357-295.4 0-108.4 58-208 152.2-261.6 14.6-8.2 10.8-30.2-5.6-33.4C896.8 2.2 873.4 0 850 0 638.2 0 466.2 171.8 466.2 384c0 17 1.4 33.6 3.6 50 11.8 8.6 23.2 17.8 33.4 28.4 22.8-9.4 47.4-14.4 72.8-14.4 105.8 0 192 86.2 192 192 0 7.2-0.4 14.4-1.2 21.4 47.2 21.6 84.8 59 107 105.2 108.8-6.8 207.4-58.6 274.2-140.8 10.6-13-1-32.2-17.4-29z" p-id="6084" fill="#13227a"></path></svg>